<svg xmlns="http://www.w3.org/2000/svg" xmlns:xlink="http://www.w3.org/1999/xlink" width="600" zoomAndPan="magnify" viewBox="0 0 450 225" height="300" preserveAspectRatio="xMidYMid meet" version="1.0"><defs><g/></defs><path fill="#16a34b" d="M 416.296875 93.414062 L 416.296875 105.171875 L 221.925781 105.171875 C 220.515625 105.171875 219.160156 104.664062 218.09375 103.746094 L 140.089844 36.546875 L 61.660156 105.171875 L 43.8125 105.171875 L 136.1875 24.335938 C 138.378906 22.414062 141.671875 22.402344 143.890625 24.308594 L 181.199219 56.449219 L 181.199219 37.703125 C 181.199219 36.011719 182.570312 34.640625 184.261719 34.640625 L 201.640625 34.640625 C 203.335938 34.640625 204.707031 36.011719 204.707031 37.703125 L 204.707031 76.699219 C 204.707031 76.699219 204.707031 76.699219 204.707031 76.703125 L 224.109375 93.414062 Z M 416.296875 93.414062 " fill-opacity="1" fill-rule="nonzero"/><path fill="#16a34b" d="M 134.175781 69.90625 L 122.421875 69.90625 L 122.421875 81.660156 L 134.175781 81.660156 Z M 157.6875 81.660156 L 145.933594 81.660156 L 145.933594 69.90625 L 157.6875 69.90625 Z M 134.175781 105.171875 L 122.421875 105.171875 L 122.421875 93.414062 L 134.175781 93.414062 Z M 157.6875 105.171875 L 145.933594 105.171875 L 145.933594 93.414062 L 157.6875 93.414062 Z M 157.6875 105.171875 " fill-opacity="1" fill-rule="nonzero"/><path stroke-linecap="butt" transform="matrix(0.75, -0.000000000000000186, 0.000000000000000186, 0.75, 304.473796, 145.172378)" fill="none" stroke-linejoin="miter" d="M -0.00151982 0.49933 L 148.17557 0.49933 " stroke="#19242d" stroke-width="1" stroke-opacity="1" stroke-miterlimit="4"/><g fill="#16a34b" fill-opacity="1"><g transform="translate(301.839551, 172.018653)"><g><path d="M 10.734375 0.25 C 9.410156 0.25 8.171875 0 7.015625 -0.5 C 5.867188 -1 4.851562 -1.6875 3.96875 -2.5625 C 3.082031 -3.445312 2.390625 -4.460938 1.890625 -5.609375 C 1.398438 -6.765625 1.15625 -8.007812 1.15625 -9.34375 C 1.15625 -10.664062 1.398438 -11.898438 1.890625 -13.046875 C 2.390625 -14.203125 3.082031 -15.222656 3.96875 -16.109375 C 4.851562 -16.992188 5.867188 -17.679688 7.015625 -18.171875 C 8.171875 -18.671875 9.410156 -18.921875 10.734375 -18.921875 C 12.066406 -18.921875 13.3125 -18.671875 14.46875 -18.171875 C 15.632812 -17.679688 16.648438 -16.992188 17.515625 -16.109375 C 18.390625 -15.222656 19.078125 -14.203125 19.578125 -13.046875 C 20.078125 -11.898438 20.328125 -10.664062 20.328125 -9.34375 C 20.328125 -8.007812 20.078125 -6.765625 19.578125 -5.609375 C 19.078125 -4.460938 18.390625 -3.445312 17.515625 -2.5625 C 16.648438 -1.6875 15.632812 -1 14.46875 -0.5 C 13.3125 0 12.066406 0.25 10.734375 0.25 Z M 10.734375 -3.765625 C 11.796875 -3.765625 12.742188 -4.007812 13.578125 -4.5 C 14.421875 -4.988281 15.085938 -5.648438 15.578125 -6.484375 C 16.066406 -7.328125 16.3125 -8.28125 16.3125 -9.34375 C 16.3125 -10.394531 16.066406 -11.34375 15.578125 -12.1875 C 15.085938 -13.03125 14.421875 -13.691406 13.578125 -14.171875 C 12.742188 -14.660156 11.796875 -14.90625 10.734375 -14.90625 C 9.703125 -14.90625 8.765625 -14.660156 7.921875 -14.171875 C 7.078125 -13.691406 6.410156 -13.03125 5.921875 -12.1875 C 5.441406 -11.34375 5.203125 -10.394531 5.203125 -9.34375 C 5.203125 -8.28125 5.441406 -7.328125 5.921875 -6.484375 C 6.410156 -5.648438 7.078125 -4.988281 7.921875 -4.5 C 8.765625 -4.007812 9.703125 -3.765625 10.734375 -3.765625 Z M 10.734375 -3.765625 "/></g></g></g><g fill="#16a34b" fill-opacity="1"><g transform="translate(326.089643, 172.018653)"><g><path d="M 15.25 -18.671875 L 19.328125 -18.671875 L 19.328125 0 L 15.09375 0 L 5.953125 -12.390625 L 5.953125 0 L 1.84375 0 L 1.84375 -18.671875 L 6.078125 -18.671875 L 15.25 -6.3125 Z M 15.25 -18.671875 "/></g></g></g><g fill="#16a34b" fill-opacity="1"><g transform="translate(350.028452, 172.018653)"><g><path d="M 5.953125 -3.640625 L 12.140625 -3.640625 L 12.140625 0 L 1.84375 0 L 1.84375 -18.671875 L 5.953125 -18.671875 Z M 5.953125 -3.640625 "/></g></g></g><g fill="#16a34b" fill-opacity="1"><g transform="translate(364.971165, 172.018653)"><g><path d="M 2 0 L 2 -18.671875 L 6.109375 -18.671875 L 6.109375 0 Z M 2 0 "/></g></g></g><g fill="#16a34b" fill-opacity="1"><g transform="translate(375.773807, 172.018653)"><g><path d="M 15.25 -18.671875 L 19.328125 -18.671875 L 19.328125 0 L 15.09375 0 L 5.953125 -12.390625 L 5.953125 0 L 1.84375 0 L 1.84375 -18.671875 L 6.078125 -18.671875 L 15.25 -6.3125 Z M 15.25 -18.671875 "/></g></g></g><g fill="#16a34b" fill-opacity="1"><g transform="translate(399.712615, 172.018653)"><g><path d="M 13.234375 -15.0625 L 6.109375 -15.0625 L 6.109375 -11.140625 L 12.203125 -11.140625 L 12.203125 -7.53125 L 6.109375 -7.53125 L 6.109375 -3.609375 L 13.234375 -3.609375 L 13.234375 0 L 2 0 L 2 -18.671875 L 13.234375 -18.671875 Z M 13.234375 -15.0625 "/></g></g></g><g fill="#000000" fill-opacity="1"><g transform="translate(51.509972, 137.252733)"><g><path d="M 10.921875 -20.875 C 12.109375 -20.875 13.171875 -20.585938 14.109375 -20.015625 C 15.046875 -19.453125 15.785156 -18.695312 16.328125 -17.75 C 16.878906 -16.800781 17.15625 -15.742188 17.15625 -14.578125 C 17.15625 -13.421875 16.878906 -12.378906 16.328125 -11.453125 C 15.785156 -10.523438 15.046875 -9.789062 14.109375 -9.25 C 13.171875 -8.71875 12.109375 -8.453125 10.921875 -8.453125 L 6.640625 -8.453125 L 6.640625 0 L 2.046875 0 L 2.046875 -20.875 Z M 10.203125 -12.25 C 10.941406 -12.25 11.550781 -12.457031 12.03125 -12.875 C 12.519531 -13.289062 12.765625 -13.847656 12.765625 -14.546875 C 12.765625 -15.222656 12.519531 -15.773438 12.03125 -16.203125 C 11.550781 -16.628906 10.941406 -16.84375 10.203125 -16.84375 L 6.640625 -16.84375 L 6.640625 -12.25 Z M 10.203125 -12.25 "/></g></g></g><g fill="#000000" fill-opacity="1"><g transform="translate(68.805214, 137.252733)"><g><path d="M 12.953125 -8.59375 L 18.796875 0 L 13.640625 0 L 8.5 -8.078125 L 6.640625 -8.078125 L 6.640625 0 L 2.046875 0 L 2.046875 -20.875 L 10.921875 -20.875 C 12.128906 -20.875 13.195312 -20.585938 14.125 -20.015625 C 15.050781 -19.453125 15.785156 -18.679688 16.328125 -17.703125 C 16.878906 -16.734375 17.15625 -15.660156 17.15625 -14.484375 C 17.15625 -13.066406 16.757812 -11.820312 15.96875 -10.75 C 15.1875 -9.6875 14.179688 -8.96875 12.953125 -8.59375 Z M 10.234375 -11.875 C 10.972656 -11.875 11.578125 -12.101562 12.046875 -12.5625 C 12.523438 -13.03125 12.765625 -13.625 12.765625 -14.34375 C 12.765625 -15.0625 12.523438 -15.648438 12.046875 -16.109375 C 11.578125 -16.578125 10.972656 -16.8125 10.234375 -16.8125 L 6.640625 -16.8125 L 6.640625 -11.875 Z M 10.234375 -11.875 "/></g></g></g><g fill="#000000" fill-opacity="1"><g transform="translate(87.422829, 137.252733)"><g><path d="M 14.796875 -16.84375 L 6.828125 -16.84375 L 6.828125 -12.453125 L 13.640625 -12.453125 L 13.640625 -8.421875 L 6.828125 -8.421875 L 6.828125 -4.03125 L 14.796875 -4.03125 L 14.796875 0 L 2.234375 0 L 2.234375 -20.875 L 14.796875 -20.875 Z M 14.796875 -16.84375 "/></g></g></g><g fill="#000000" fill-opacity="1"><g transform="translate(103.639296, 137.252733)"><g><path d="M 20.25 -20.875 L 25.203125 -20.875 L 25.203125 0 L 20.609375 0 L 20.609375 -12.421875 L 14.9375 0 L 12.28125 0 L 6.640625 -12.453125 L 6.640625 0 L 2.046875 0 L 2.046875 -20.875 L 7.03125 -20.875 L 13.609375 -6.4375 Z M 20.25 -20.875 "/></g></g></g><g fill="#000000" fill-opacity="1"><g transform="translate(130.887148, 137.252733)"><g><path d="M 2.234375 0 L 2.234375 -20.875 L 6.828125 -20.875 L 6.828125 0 Z M 2.234375 0 "/></g></g></g><g fill="#000000" fill-opacity="1"><g transform="translate(139.900173, 137.252733)"><g><path d="M 10.609375 0.28125 C 8.984375 0.28125 7.515625 -0.0234375 6.203125 -0.640625 C 4.898438 -1.253906 3.863281 -2.085938 3.09375 -3.140625 C 2.332031 -4.203125 1.953125 -5.382812 1.953125 -6.6875 L 1.953125 -20.875 L 6.546875 -20.875 L 6.546875 -7.546875 C 6.546875 -6.484375 6.9375 -5.59375 7.71875 -4.875 C 8.507812 -4.15625 9.472656 -3.796875 10.609375 -3.796875 C 11.773438 -3.796875 12.75 -4.15625 13.53125 -4.875 C 14.320312 -5.59375 14.71875 -6.484375 14.71875 -7.546875 L 14.71875 -20.875 L 19.3125 -20.875 L 19.3125 -6.6875 C 19.3125 -5.382812 18.925781 -4.203125 18.15625 -3.140625 C 17.394531 -2.085938 16.359375 -1.253906 15.046875 -0.640625 C 13.742188 -0.0234375 12.265625 0.28125 10.609375 0.28125 Z M 10.609375 0.28125 "/></g></g></g><g fill="#000000" fill-opacity="1"><g transform="translate(161.162548, 137.252733)"><g><path d="M 20.25 -20.875 L 25.203125 -20.875 L 25.203125 0 L 20.609375 0 L 20.609375 -12.421875 L 14.9375 0 L 12.28125 0 L 6.640625 -12.453125 L 6.640625 0 L 2.046875 0 L 2.046875 -20.875 L 7.03125 -20.875 L 13.609375 -6.4375 Z M 20.25 -20.875 "/></g></g></g><g fill="#000000" fill-opacity="1"><g transform="translate(188.4104, 137.252733)"><g/></g></g><g fill="#000000" fill-opacity="1"><g transform="translate(196.762238, 137.252733)"><g><path d="M 14.796875 -16.84375 L 6.828125 -16.84375 L 6.828125 -12.453125 L 13.640625 -12.453125 L 13.640625 -8.421875 L 6.828125 -8.421875 L 6.828125 -4.03125 L 14.796875 -4.03125 L 14.796875 0 L 2.234375 0 L 2.234375 -20.875 L 14.796875 -20.875 Z M 14.796875 -16.84375 "/></g></g></g><g fill="#000000" fill-opacity="1"><g transform="translate(212.978706, 137.252733)"><g><path d="M 17.046875 -20.875 L 21.609375 -20.875 L 21.609375 0 L 16.875 0 L 6.640625 -13.859375 L 6.640625 0 L 2.046875 0 L 2.046875 -20.875 L 6.78125 -20.875 L 17.046875 -7.0625 Z M 17.046875 -20.875 "/></g></g></g><g fill="#000000" fill-opacity="1"><g transform="translate(236.677031, 137.252733)"><g><path d="M 14.796875 -16.84375 L 6.828125 -16.84375 L 6.828125 -12.453125 L 13.640625 -12.453125 L 13.640625 -8.421875 L 6.828125 -8.421875 L 6.828125 -4.03125 L 14.796875 -4.03125 L 14.796875 0 L 2.234375 0 L 2.234375 -20.875 L 14.796875 -20.875 Z M 14.796875 -16.84375 "/></g></g></g><g fill="#000000" fill-opacity="1"><g transform="translate(252.893498, 137.252733)"><g><path d="M 12.953125 -8.59375 L 18.796875 0 L 13.640625 0 L 8.5 -8.078125 L 6.640625 -8.078125 L 6.640625 0 L 2.046875 0 L 2.046875 -20.875 L 10.921875 -20.875 C 12.128906 -20.875 13.195312 -20.585938 14.125 -20.015625 C 15.050781 -19.453125 15.785156 -18.679688 16.328125 -17.703125 C 16.878906 -16.734375 17.15625 -15.660156 17.15625 -14.484375 C 17.15625 -13.066406 16.757812 -11.820312 15.96875 -10.75 C 15.1875 -9.6875 14.179688 -8.96875 12.953125 -8.59375 Z M 10.234375 -11.875 C 10.972656 -11.875 11.578125 -12.101562 12.046875 -12.5625 C 12.523438 -13.03125 12.765625 -13.625 12.765625 -14.34375 C 12.765625 -15.0625 12.523438 -15.648438 12.046875 -16.109375 C 11.578125 -16.578125 10.972656 -16.8125 10.234375 -16.8125 L 6.640625 -16.8125 L 6.640625 -11.875 Z M 10.234375 -11.875 "/></g></g></g><g fill="#000000" fill-opacity="1"><g transform="translate(271.511113, 137.252733)"><g><path d="M 12 -11.453125 L 22.765625 -11.453125 L 22.765625 -10.4375 C 22.765625 -8.957031 22.484375 -7.570312 21.921875 -6.28125 C 21.367188 -4.988281 20.597656 -3.847656 19.609375 -2.859375 C 18.628906 -1.878906 17.492188 -1.109375 16.203125 -0.546875 C 14.910156 0.00390625 13.523438 0.28125 12.046875 0.28125 C 10.554688 0.28125 9.160156 0.00390625 7.859375 -0.546875 C 6.566406 -1.109375 5.429688 -1.878906 4.453125 -2.859375 C 3.484375 -3.847656 2.71875 -4.988281 2.15625 -6.28125 C 1.601562 -7.570312 1.328125 -8.957031 1.328125 -10.4375 C 1.328125 -11.925781 1.601562 -13.3125 2.15625 -14.59375 C 2.71875 -15.882812 3.484375 -17.019531 4.453125 -18 C 5.429688 -18.988281 6.566406 -19.757812 7.859375 -20.3125 C 9.160156 -20.875 10.554688 -21.15625 12.046875 -21.15625 C 14.109375 -21.15625 15.976562 -20.628906 17.65625 -19.578125 C 19.34375 -18.523438 20.640625 -17.140625 21.546875 -15.421875 L 17.578125 -13.359375 C 17.066406 -14.359375 16.320312 -15.160156 15.34375 -15.765625 C 14.375 -16.367188 13.273438 -16.671875 12.046875 -16.671875 C 10.878906 -16.671875 9.820312 -16.394531 8.875 -15.84375 C 7.925781 -15.300781 7.175781 -14.5625 6.625 -13.625 C 6.082031 -12.6875 5.8125 -11.625 5.8125 -10.4375 C 5.8125 -9.257812 6.082031 -8.195312 6.625 -7.25 C 7.175781 -6.3125 7.925781 -5.570312 8.875 -5.03125 C 9.820312 -4.488281 10.878906 -4.21875 12.046875 -4.21875 C 13.335938 -4.21875 14.488281 -4.550781 15.5 -5.21875 C 16.507812 -5.894531 17.257812 -6.773438 17.75 -7.859375 L 12 -7.859375 Z M 12 -11.453125 "/></g></g></g><g fill="#000000" fill-opacity="1"><g transform="translate(295.592225, 137.252733)"><g><path d="M 2.234375 0 L 2.234375 -20.875 L 6.828125 -20.875 L 6.828125 0 Z M 2.234375 0 "/></g></g></g><g fill="#000000" fill-opacity="1"><g transform="translate(304.605249, 137.252733)"><g><path d="M 14.796875 -16.84375 L 6.828125 -16.84375 L 6.828125 -12.453125 L 13.640625 -12.453125 L 13.640625 -8.421875 L 6.828125 -8.421875 L 6.828125 -4.03125 L 14.796875 -4.03125 L 14.796875 0 L 2.234375 0 L 2.234375 -20.875 L 14.796875 -20.875 Z M 14.796875 -16.84375 "/></g></g></g><g fill="#000000" fill-opacity="1"><g transform="translate(320.821717, 137.252733)"><g><path d="M 10.921875 -20.875 C 12.109375 -20.875 13.171875 -20.585938 14.109375 -20.015625 C 15.046875 -19.453125 15.785156 -18.695312 16.328125 -17.75 C 16.878906 -16.800781 17.15625 -15.742188 17.15625 -14.578125 C 17.15625 -13.421875 16.878906 -12.378906 16.328125 -11.453125 C 15.785156 -10.523438 15.046875 -9.789062 14.109375 -9.25 C 13.171875 -8.71875 12.109375 -8.453125 10.921875 -8.453125 L 6.640625 -8.453125 L 6.640625 0 L 2.046875 0 L 2.046875 -20.875 Z M 10.203125 -12.25 C 10.941406 -12.25 11.550781 -12.457031 12.03125 -12.875 C 12.519531 -13.289062 12.765625 -13.847656 12.765625 -14.546875 C 12.765625 -15.222656 12.519531 -15.773438 12.03125 -16.203125 C 11.550781 -16.628906 10.941406 -16.84375 10.203125 -16.84375 L 6.640625 -16.84375 L 6.640625 -12.25 Z M 10.203125 -12.25 "/></g></g></g><g fill="#000000" fill-opacity="1"><g transform="translate(338.11696, 137.252733)"><g><path d="M 14.828125 0 L 13.53125 -3.9375 L 5.75 -3.9375 L 4.453125 0 L -0.453125 0 L 7.0625 -20.875 L 12.21875 -20.875 L 19.734375 0 Z M 6.953125 -7.765625 L 12.328125 -7.765625 L 9.640625 -16.046875 Z M 6.953125 -7.765625 "/></g></g></g><g fill="#000000" fill-opacity="1"><g transform="translate(357.395777, 137.252733)"><g><path d="M 8.5 0.28125 C 6.664062 0.28125 5.050781 -0.171875 3.65625 -1.078125 C 2.257812 -1.984375 1.226562 -3.085938 0.5625 -4.390625 L 4.34375 -6.75 C 4.738281 -5.9375 5.296875 -5.28125 6.015625 -4.78125 C 6.734375 -4.28125 7.570312 -4.03125 8.53125 -4.03125 C 9.34375 -4.03125 9.972656 -4.203125 10.421875 -4.546875 C 10.878906 -4.898438 11.109375 -5.367188 11.109375 -5.953125 C 11.109375 -6.554688 10.875 -7.039062 10.40625 -7.40625 C 9.9375 -7.78125 9.335938 -8.09375 8.609375 -8.34375 C 7.878906 -8.601562 7.101562 -8.878906 6.28125 -9.171875 C 5.457031 -9.460938 4.679688 -9.835938 3.953125 -10.296875 C 3.222656 -10.765625 2.625 -11.367188 2.15625 -12.109375 C 1.695312 -12.847656 1.46875 -13.8125 1.46875 -15 C 1.46875 -16.394531 1.789062 -17.539062 2.4375 -18.4375 C 3.082031 -19.34375 3.921875 -20.019531 4.953125 -20.46875 C 5.992188 -20.925781 7.054688 -21.15625 8.140625 -21.15625 C 9.441406 -21.15625 10.648438 -20.882812 11.765625 -20.34375 C 12.878906 -19.800781 13.816406 -19.085938 14.578125 -18.203125 L 11.515625 -15.28125 C 11.003906 -15.863281 10.457031 -16.3125 9.875 -16.625 C 9.300781 -16.9375 8.710938 -17.09375 8.109375 -17.09375 C 7.554688 -17.09375 7.082031 -16.953125 6.6875 -16.671875 C 6.289062 -16.390625 6.09375 -15.945312 6.09375 -15.34375 C 6.09375 -14.738281 6.320312 -14.265625 6.78125 -13.921875 C 7.25 -13.578125 7.847656 -13.273438 8.578125 -13.015625 C 9.304688 -12.765625 10.078125 -12.488281 10.890625 -12.1875 C 11.703125 -11.882812 12.472656 -11.488281 13.203125 -11 C 13.929688 -10.507812 14.53125 -9.863281 15 -9.0625 C 15.46875 -8.257812 15.703125 -7.210938 15.703125 -5.921875 C 15.703125 -4.617188 15.367188 -3.503906 14.703125 -2.578125 C 14.046875 -1.648438 13.171875 -0.941406 12.078125 -0.453125 C 10.984375 0.0351562 9.789062 0.28125 8.5 0.28125 Z M 8.5 0.28125 "/></g></g></g><g fill="#000000" fill-opacity="1"><g transform="translate(373.890611, 137.252733)"><g><path d="M 8.5 0.28125 C 6.664062 0.28125 5.050781 -0.171875 3.65625 -1.078125 C 2.257812 -1.984375 1.226562 -3.085938 0.5625 -4.390625 L 4.34375 -6.75 C 4.738281 -5.9375 5.296875 -5.28125 6.015625 -4.78125 C 6.734375 -4.28125 7.570312 -4.03125 8.53125 -4.03125 C 9.34375 -4.03125 9.972656 -4.203125 10.421875 -4.546875 C 10.878906 -4.898438 11.109375 -5.367188 11.109375 -5.953125 C 11.109375 -6.554688 10.875 -7.039062 10.40625 -7.40625 C 9.9375 -7.78125 9.335938 -8.09375 8.609375 -8.34375 C 7.878906 -8.601562 7.101562 -8.878906 6.28125 -9.171875 C 5.457031 -9.460938 4.679688 -9.835938 3.953125 -10.296875 C 3.222656 -10.765625 2.625 -11.367188 2.15625 -12.109375 C 1.695312 -12.847656 1.46875 -13.8125 1.46875 -15 C 1.46875 -16.394531 1.789062 -17.539062 2.4375 -18.4375 C 3.082031 -19.34375 3.921875 -20.019531 4.953125 -20.46875 C 5.992188 -20.925781 7.054688 -21.15625 8.140625 -21.15625 C 9.441406 -21.15625 10.648438 -20.882812 11.765625 -20.34375 C 12.878906 -19.800781 13.816406 -19.085938 14.578125 -18.203125 L 11.515625 -15.28125 C 11.003906 -15.863281 10.457031 -16.3125 9.875 -16.625 C 9.300781 -16.9375 8.710938 -17.09375 8.109375 -17.09375 C 7.554688 -17.09375 7.082031 -16.953125 6.6875 -16.671875 C 6.289062 -16.390625 6.09375 -15.945312 6.09375 -15.34375 C 6.09375 -14.738281 6.320312 -14.265625 6.78125 -13.921875 C 7.25 -13.578125 7.847656 -13.273438 8.578125 -13.015625 C 9.304688 -12.765625 10.078125 -12.488281 10.890625 -12.1875 C 11.703125 -11.882812 12.472656 -11.488281 13.203125 -11 C 13.929688 -10.507812 14.53125 -9.863281 15 -9.0625 C 15.46875 -8.257812 15.703125 -7.210938 15.703125 -5.921875 C 15.703125 -4.617188 15.367188 -3.503906 14.703125 -2.578125 C 14.046875 -1.648438 13.171875 -0.941406 12.078125 -0.453125 C 10.984375 0.0351562 9.789062 0.28125 8.5 0.28125 Z M 8.5 0.28125 "/></g></g></g><g fill="#000000" fill-opacity="1"><g transform="translate(390.385509, 137.252733)"><g><path d="M 12 -21.15625 C 13.488281 -21.15625 14.875 -20.875 16.15625 -20.3125 C 17.445312 -19.757812 18.585938 -18.988281 19.578125 -18 C 20.566406 -17.019531 21.335938 -15.882812 21.890625 -14.59375 C 22.453125 -13.3125 22.734375 -11.925781 22.734375 -10.4375 C 22.734375 -8.957031 22.453125 -7.570312 21.890625 -6.28125 C 21.335938 -4.988281 20.566406 -3.847656 19.578125 -2.859375 C 18.585938 -1.878906 17.445312 -1.109375 16.15625 -0.546875 C 14.875 0.00390625 13.488281 0.28125 12 0.28125 C 10.539062 0.28125 9.160156 0.00390625 7.859375 -0.546875 C 6.566406 -1.109375 5.425781 -1.878906 4.4375 -2.859375 C 3.445312 -3.847656 2.671875 -4.988281 2.109375 -6.28125 C 1.554688 -7.570312 1.28125 -8.957031 1.28125 -10.4375 C 1.28125 -11.925781 1.554688 -13.3125 2.109375 -14.59375 C 2.671875 -15.882812 3.445312 -17.019531 4.4375 -18 C 5.425781 -18.988281 6.566406 -19.757812 7.859375 -20.3125 C 9.160156 -20.875 10.539062 -21.15625 12 -21.15625 Z M 12 -2.046875 C 13.582031 -2.046875 15.003906 -2.414062 16.265625 -3.15625 C 17.535156 -3.90625 18.539062 -4.914062 19.28125 -6.1875 C 20.019531 -7.46875 20.390625 -8.882812 20.390625 -10.4375 C 20.390625 -12.019531 20.019531 -13.441406 19.28125 -14.703125 C 18.539062 -15.972656 17.535156 -16.976562 16.265625 -17.71875 C 15.003906 -18.457031 13.582031 -18.828125 12 -18.828125 C 10.445312 -18.828125 9.03125 -18.457031 7.75 -17.71875 C 6.476562 -16.976562 5.472656 -15.972656 4.734375 -14.703125 C 3.992188 -13.441406 3.625 -12.019531 3.625 -10.4375 C 3.625 -8.882812 3.992188 -7.46875 4.734375 -6.1875 C 5.472656 -4.914062 6.476562 -3.90625 7.75 -3.15625 C 9.03125 -2.414062 10.445312 -2.046875 12 -2.046875 Z M 16.046875 -12.53125 C 16.046875 -11.90625 15.882812 -11.335938 15.5625 -10.828125 C 15.238281 -10.316406 14.804688 -9.921875 14.265625 -9.640625 L 16.78125 -5.078125 L 14.375 -5.078125 L 12.046875 -9.265625 L 11.171875 -9.265625 L 11.171875 -5.078125 L 9.046875 -5.078125 L 9.046875 -15.796875 L 12.703125 -15.796875 C 13.628906 -15.796875 14.414062 -15.476562 15.0625 -14.84375 C 15.71875 -14.207031 16.046875 -13.4375 16.046875 -12.53125 Z M 11.171875 -13.671875 L 11.171875 -11.375 L 12.703125 -11.375 C 13.023438 -11.375 13.300781 -11.484375 13.53125 -11.703125 C 13.769531 -11.929688 13.890625 -12.207031 13.890625 -12.53125 C 13.890625 -12.851562 13.769531 -13.125 13.53125 -13.34375 C 13.300781 -13.5625 13.023438 -13.671875 12.703125 -13.671875 Z M 11.171875 -13.671875 "/></g></g></g></svg>